<?xml version="1.0" encoding="UTF-8" standalone="no"?>
<svg
   width="670.18634"
   height="708.66736"
   viewBox="0 0 670.18634 708.66736"
   version="1.1"
   xml:space="preserve"
   id="SVGRoot"
   xmlns="http://www.w3.org/2000/svg"
   xmlns:svg="http://www.w3.org/2000/svg"><defs
   id="defs2" />
  
 <style
   type="text/css"
   id="style1">
g.prefab path {
  vector-effect:non-scaling-stroke;
  -inkscape-stroke:hairline;
  fill: none;
  fill-opacity: 1;
  stroke-opacity: 1;
  stroke: #00349c;
}
 </style>
 
<path
   id="path2"
   d="m 140.67876,475.74534 -35.14729,9.5863 19.17033,-46.32998 19.17201,-129.40255 -23.96291,-4.7909 28.7555,-39.93538 35.82438,-134.63517 -62.98403,13.21744 c 0,0 33.21175,-60.806954 68.45321,-100.403184 L 143.87381,7.665286 c 0,0 -148.476441,65.40333 -108.538249,277.874514 l -30.691622,-5.37556 29.434872,222.74075 -24.88498,6.38957 c 0,0 25.49372,52.01827 61.19258,76.6841 3.24046,2.23767 -44.73132,-174.13442 6.38956,-349.86696 l 4.79259,11.1827 c 0,0 -40.73696,187.31545 0,338.68426 0,0 1.87667,3.59305 22.244309,1.1973 0,0 36.86589,-69.493 36.86589,-111.43062"
   style="fill:#1e5cb3;fill-opacity:1;fill-rule:nonzero;stroke:none;stroke-width:0.560535" /><path
   id="path8"
   d="m 92.457511,220.28777 c 0,0 -21.55876,96.12744 -15.35308,251.9761 1.85873,46.74811 6.9714,89.71883 13.21631,126.98322 l 0.0336,0.002 c 4.06163,32.71905 6.77911,44.56484 17.368189,83.99069 l -0.61769,25.42759 c 0,0 -84.781089,-270.69458 -14.646259,-488.37987"
   style="fill:#bfd2f5;fill-opacity:1;fill-rule:nonzero;stroke:none;stroke-width:0.560535" /><path
   id="path9"
   d="m 144.50215,136.94168 c 0,0 19.06666,-9.49549 46.39951,-12.95397 0,0 29.87936,54.76434 -43.65399,148.26738 0,0 43.86865,-97.92003 33.52285,-128.5982 0,0 -11.57001,-7.19165 -36.26837,-6.71521"
   style="fill:#bfd2f5;fill-opacity:1;fill-rule:nonzero;stroke:none;stroke-width:0.560535" /><path
   id="path10"
   d="m 135.46577,301.32446 c 0,0 17.12268,3.96582 25.34461,-2.69057 0,0 -16.19893,63.20437 -11.95342,97.9733 4.24775,34.76611 -26.38665,57.02332 -26.38665,57.02332 0,0 26.09574,-33.01669 17.8934,-59.90951 -5.68829,-18.64008 0.67432,-66.34898 7.84975,-81.49636 0,0 -6.70008,-0.93943 -12.74769,-10.90018"
   style="fill:#bfd2f5;fill-opacity:1;fill-rule:nonzero;stroke:none;stroke-width:0.560535" /><path
   id="path11"
   d="m 118.53589,467.85637 c 0,0 28.29587,-3.38735 31.2695,-17.68101 0,0 3.46189,85.49295 -35.8502,120.72322 0,0 29.99484,-46.78906 25.2897,-95.19246 l -20.709,-7.84975"
   style="fill:#bfd2f5;fill-opacity:1;fill-rule:nonzero;stroke:none;stroke-width:0.560535" /><path
   id="path12"
   d="m 38.939791,503.44143 c 0,0 -9.1244,10.21913 -36.504892,-12.32283 0,0 8.723052,57.45941 62.915642,83.76312 0,0 -37.29525,-28.09908 -47.3434,-58.45155 0,0 13.17931,-3.88002 20.93265,-12.98874"
   style="fill:#bfd2f5;fill-opacity:1;fill-rule:nonzero;stroke:none;stroke-width:0.560535" /><path
   id="path13"
   d="m 30.205521,481.64892 c 0,0 -37.023962,-93.97557 -29.091272,-220.9577 0,0 8.646832,22.99881 36.434852,31.0593 0,0 -13.09132,2.67935 -20.74654,1.51904 0,0 -19.368762,53.60521 13.40296,188.37936"
   style="fill:#bfd2f5;fill-opacity:1;fill-rule:nonzero;stroke:none;stroke-width:0.560535" /><path
   id="path14"
   d="m 185.73013,44.980126 c 0,0 -13.87549,-101.967075 -100.682329,1.14913 -69.11858,82.112924 -60.88148,151.821174 -56.63992,190.716764 1.0835,9.94953 -12.8598,-103.87293 62.86746,-178.777344 75.726719,-74.904411 92.834309,-17.43828 94.454789,-13.08855"
   style="fill:#bfd2f5;fill-opacity:1;fill-rule:nonzero;stroke:none;stroke-width:0.560535" /><path
   style="font-weight:300;font-size:133.333px;line-height:0.9;font-family:'Haas Grot Disp Trial';-inkscape-font-specification:'Haas Grot Disp Trial Light';fill:#bfd2f5"
   d="m 266.85426,358.65872 h 8.93332 v -45.86655 h 45.33321 v -7.73331 h -45.33321 v -33.86658 h 53.19986 v -7.86665 h -62.13318 z m 95.06639,1.73333 c 15.46662,0 25.19993,-8.93331 28.13326,-22.53327 h -7.99998 c -2.66666,9.3333 -8.66665,15.46662 -20.13328,15.46662 -15.7333,0 -23.19994,-12.1333 -23.59994,-27.59993 h 52.5332 c 0.13333,-19.33328 -7.46665,-37.5999 -29.59993,-37.5999 -19.06662,0 -31.46658,15.46663 -31.46658,36.13324 0,20.66661 11.46663,36.13324 32.13325,36.13324 z m -23.46661,-41.19989 c 1.46666,-13.7333 8.79998,-24.26661 22.79994,-24.26661 14.1333,0 20.53328,10.66664 20.93328,24.26661 z m 81.33306,41.06656 c 13.19997,0 20.26661,-6.39999 24.13327,-11.86664 h 0.4 v 1.46666 c 0.4,6.66665 4.13332,9.73331 10.13331,9.73331 2.66666,0 4.39999,-0.53333 5.59998,-1.06666 v -5.99999 h -0.4 c -1.19999,0.26667 -2.13332,0.53334 -3.06666,0.53334 -2.93332,-0.13334 -4.53332,-1.86667 -4.53332,-5.99999 v -37.46657 c 0,-15.06663 -9.33331,-21.33328 -24.39993,-21.33328 -17.73329,0 -26.53327,8.66665 -27.4666,21.99995 h 8.13331 c 0.66667,-10.26664 7.06665,-15.3333 19.33329,-15.3333 10.66663,0 16.53329,4.53332 16.53329,13.86663 v 1.33333 c 0,6.93332 -4.93332,7.73332 -18.53329,9.33331 -15.59996,1.86666 -28.39993,5.19999 -28.39993,21.59995 0,12.79996 9.73331,19.19995 22.53328,19.19995 z m 1.46666,-6.66665 c -8.13331,0 -15.33329,-2.93333 -15.33329,-12.5333 0,-11.86664 8.93331,-13.59997 20.53328,-15.19996 6.66665,-0.93334 13.46663,-2.13333 17.86662,-4.53333 v 12.39997 c 0,9.46664 -7.99998,19.86662 -23.06661,19.86662 z m 63.33333,5.59998 c 2.93333,0 5.33332,-0.4 7.59998,-1.19999 v -7.06665 h -0.4 c -1.2,0.53333 -3.59999,1.06666 -5.46665,1.06666 -4.39999,0 -6.66665,-1.59999 -6.66665,-6.53331 v -48.93321 h 12.79997 v -6.79999 h -12.79997 v -21.19994 h -8.26665 v 21.19994 h -10.39997 v 6.79999 h 10.39997 v 50.26654 c 0,8.79997 5.33332,12.39996 13.19997,12.39996 z m 19.06655,-0.53333 h 8.26665 V 314.9255 c 0,-11.3333 9.59997,-19.59995 21.33328,-19.59995 9.73331,0 15.73329,4.79999 15.73329,15.19996 v 48.13321 h 8.26665 v -48.93321 c 0,-13.86663 -9.19998,-21.46661 -21.99995,-21.46661 -10.9333,0 -18.39995,5.06666 -23.06661,11.99997 h -0.26666 v -36.93324 h -8.26665 z m 95.46632,1.73333 c 15.46662,0 25.19993,-8.93331 28.13326,-22.53327 h -7.99998 c -2.66666,9.3333 -8.66665,15.46662 -20.13328,15.46662 -15.7333,0 -23.19994,-12.1333 -23.59994,-27.59993 h 52.5332 c 0.13333,-19.33328 -7.46665,-37.5999 -29.59993,-37.5999 -19.06662,0 -31.46658,15.46663 -31.46658,36.13324 0,20.66661 11.46663,36.13324 32.13325,36.13324 z m -23.46661,-41.19989 c 1.46666,-13.7333 8.79998,-24.26661 22.79994,-24.26661 14.1333,0 20.53328,10.66664 20.93328,24.26661 z m 62.66644,39.46656 h 8.26665 v -39.1999 c 0,-8.13331 3.59999,-14.53329 8.93331,-18.53328 4.26665,-3.06666 9.7333,-4.13333 14.66663,-3.33333 v -8.13331 c -0.53334,-0.13333 -1.2,-0.26667 -2.26667,-0.26667 -9.59997,0 -16.79995,5.33332 -21.06661,13.3333 h -0.26666 v -12.79997 h -8.26665 z"
   id="path1" /><path
   style="font-weight:bold;font-size:133.333px;line-height:0.9;font-family:'Haas Grot Disp Trial';-inkscape-font-specification:'Haas Grot Disp Trial Bold';fill:#1e5cb3"
   d="m 264.85427,483.07504 h 73.06648 v -19.99995 h -49.46654 v -20.39994 h 41.73323 v -18.39996 h -41.73323 v -17.06662 h 48.66654 v -19.46662 h -72.26648 z m 82.39982,0 h 21.73328 v -38.26657 c 0,-8.13331 3.99999,-13.86663 10.79997,-13.86663 6.53332,0 9.59998,4.26666 9.59998,11.59997 v 40.53323 h 21.73328 v -38.26657 c 0,-8.13331 3.86665,-13.86663 10.79997,-13.86663 6.53332,0 9.59998,4.26666 9.59998,11.59997 v 40.53323 h 21.73327 v -44.39988 c 0,-15.3333 -7.73331,-25.8666 -23.19994,-25.8666 -8.79997,0 -16.13329,3.73332 -21.46661,11.99997 h -0.26667 c -3.46665,-7.33332 -10.26664,-11.99997 -19.19995,-11.99997 -9.86664,0 -16.39995,4.66665 -20.66661,11.7333 h -0.4 v -9.73331 h -20.79995 z m 135.99959,1.73333 c 10.26664,0 16.26662,-3.59999 20.26661,-9.33331 h 0.26667 c 0.53333,3.46666 1.2,6.13332 2.26666,7.59998 h 21.06661 v -0.93333 c -1.86666,-1.19999 -2.39999,-4.26665 -2.39999,-9.73331 v -34.39991 c 0,-8.53331 -2.79999,-15.19996 -8.66665,-19.46662 -4.93332,-3.73332 -11.86663,-5.59998 -22.13327,-5.59998 -20.66662,0 -30.39992,10.79997 -30.93326,23.46661 h 19.99995 c 0.66667,-5.73332 4.13333,-8.79998 11.06664,-8.79998 6.53332,0 9.33331,2.93332 9.33331,7.33331 0,4.66666 -4.53332,5.99999 -17.33329,7.59998 -14.1333,1.86667 -26.13326,6.39999 -26.13326,21.46662 0,13.46663 9.7333,20.79994 23.33327,20.79994 z m 6.93331,-13.86663 c -5.33332,0 -9.33331,-2.13333 -9.33331,-7.59998 0,-5.19999 3.46666,-7.33331 11.86664,-9.19998 4.39999,-1.06666 8.39998,-2.13332 11.19997,-3.59999 v 8.13332 c 0,7.33331 -5.59998,12.26663 -13.7333,12.26663 z m 78.26653,14.26663 c 19.33329,0 31.86659,-12.26663 32.39992,-27.99993 h -20.79995 c -0.93333,7.73332 -5.06665,11.73331 -11.86663,11.73331 -9.33331,0 -13.99997,-7.73332 -13.99997,-19.86662 0,-12.39997 4.66666,-20.13328 13.99997,-20.13328 6.13331,0 9.86664,3.99999 11.19997,10.13331 h 20.93328 c -2,-15.3333 -13.86663,-26.13327 -32.39992,-26.13327 -21.59995,0 -35.73324,15.59996 -35.73324,36.13324 0,20.53328 14.26663,36.13324 36.26657,36.13324 z m 69.06645,0 c 17.86662,0 31.06658,-7.73331 31.06658,-22.66661 0,-17.46662 -14.13329,-20.53328 -26.13326,-22.53327 -8.66665,-1.6 -16.39996,-2.26666 -16.39996,-7.06665 0,-4.26666 4.13332,-6.26665 9.46664,-6.26665 5.99999,0 10.13331,1.86666 10.93331,7.99998 h 19.99995 c -1.06667,-13.46664 -11.46664,-21.86661 -30.79993,-21.86661 -16.13329,0 -29.46659,7.46664 -29.46659,21.86661 0,15.99996 12.66664,19.19995 24.53327,21.19994 9.06665,1.6 17.33329,2.26666 17.33329,8.39998 0,4.39999 -4.13332,6.79998 -10.66664,6.79998 -7.19998,0 -11.7333,-3.33332 -12.5333,-10.1333 h -20.53328 c 0.66667,15.06662 13.19997,24.2666 33.19992,24.2666 z"
   id="path3" /></svg>
